<mxfile host="app.diagrams.net" modified="2023-12-09T17:28:38.314Z" agent="Mozilla/5.0 (Windows NT 10.0; Win64; x64) AppleWebKit/537.36 (KHTML, like Gecko) Chrome/120.0.0.0 Safari/537.36 Edg/120.0.0.0" etag="827bITNbEgrPSRmUogH7" version="22.1.7" type="github">
  <diagram id="C5RBs43oDa-KdzZeNtuy" name="Page-1">
    <mxGraphModel dx="2206" dy="1175" grid="1" gridSize="10" guides="1" tooltips="1" connect="1" arrows="1" fold="1" page="1" pageScale="1" pageWidth="1600" pageHeight="900" math="0" shadow="0">
      <root>
        <mxCell id="WIyWlLk6GJQsqaUBKTNV-0" />
        <mxCell id="WIyWlLk6GJQsqaUBKTNV-1" parent="WIyWlLk6GJQsqaUBKTNV-0" />
        <mxCell id="mhmYDJ0m5QvtUZYOxY-j-3" value="" style="edgeStyle=orthogonalEdgeStyle;rounded=0;orthogonalLoop=1;jettySize=auto;html=1;exitX=1;exitY=0.5;exitDx=0;exitDy=0;entryX=0;entryY=0.5;entryDx=0;entryDy=0;" edge="1" parent="WIyWlLk6GJQsqaUBKTNV-1" source="mhmYDJ0m5QvtUZYOxY-j-10" target="mhmYDJ0m5QvtUZYOxY-j-11">
          <mxGeometry relative="1" as="geometry">
            <mxPoint x="142" y="60" as="sourcePoint" />
            <mxPoint x="202" y="60" as="targetPoint" />
          </mxGeometry>
        </mxCell>
        <mxCell id="mhmYDJ0m5QvtUZYOxY-j-26" style="edgeStyle=orthogonalEdgeStyle;rounded=0;orthogonalLoop=1;jettySize=auto;html=1;exitX=0.5;exitY=1;exitDx=0;exitDy=0;entryX=0.5;entryY=0;entryDx=0;entryDy=0;" edge="1" parent="WIyWlLk6GJQsqaUBKTNV-1" source="mhmYDJ0m5QvtUZYOxY-j-8" target="mhmYDJ0m5QvtUZYOxY-j-25">
          <mxGeometry relative="1" as="geometry" />
        </mxCell>
        <mxCell id="mhmYDJ0m5QvtUZYOxY-j-8" value="Login" style="rounded=1;whiteSpace=wrap;html=1;fontSize=12;glass=0;strokeWidth=2;shadow=0;fillColor=none;strokeColor=#2BE7FC;perimeterSpacing=0;" vertex="1" parent="WIyWlLk6GJQsqaUBKTNV-1">
          <mxGeometry x="182" y="100" width="65" height="30" as="geometry" />
        </mxCell>
        <mxCell id="mhmYDJ0m5QvtUZYOxY-j-24" style="edgeStyle=orthogonalEdgeStyle;rounded=0;orthogonalLoop=1;jettySize=auto;html=1;exitX=1;exitY=0.5;exitDx=0;exitDy=0;entryX=0;entryY=0.5;entryDx=0;entryDy=0;" edge="1" parent="WIyWlLk6GJQsqaUBKTNV-1" source="mhmYDJ0m5QvtUZYOxY-j-10" target="mhmYDJ0m5QvtUZYOxY-j-8">
          <mxGeometry relative="1" as="geometry" />
        </mxCell>
        <mxCell id="mhmYDJ0m5QvtUZYOxY-j-10" value="Login Page" style="rounded=1;whiteSpace=wrap;html=1;fontSize=12;glass=0;strokeWidth=2;shadow=0;fillColor=none;strokeColor=#B98F48;perimeterSpacing=0;" vertex="1" parent="WIyWlLk6GJQsqaUBKTNV-1">
          <mxGeometry x="40" y="48" width="65" height="30" as="geometry" />
        </mxCell>
        <mxCell id="mhmYDJ0m5QvtUZYOxY-j-18" style="edgeStyle=orthogonalEdgeStyle;rounded=0;orthogonalLoop=1;jettySize=auto;html=1;exitX=1;exitY=0.5;exitDx=0;exitDy=0;entryX=0;entryY=0.5;entryDx=0;entryDy=0;" edge="1" parent="WIyWlLk6GJQsqaUBKTNV-1" source="mhmYDJ0m5QvtUZYOxY-j-11" target="mhmYDJ0m5QvtUZYOxY-j-12">
          <mxGeometry relative="1" as="geometry" />
        </mxCell>
        <mxCell id="mhmYDJ0m5QvtUZYOxY-j-20" style="edgeStyle=orthogonalEdgeStyle;rounded=0;orthogonalLoop=1;jettySize=auto;html=1;exitX=1;exitY=0.5;exitDx=0;exitDy=0;entryX=0;entryY=0.5;entryDx=0;entryDy=0;" edge="1" parent="WIyWlLk6GJQsqaUBKTNV-1" source="mhmYDJ0m5QvtUZYOxY-j-11" target="mhmYDJ0m5QvtUZYOxY-j-13">
          <mxGeometry relative="1" as="geometry">
            <Array as="points">
              <mxPoint x="312" y="63" />
              <mxPoint x="312" y="105" />
            </Array>
          </mxGeometry>
        </mxCell>
        <mxCell id="mhmYDJ0m5QvtUZYOxY-j-22" style="edgeStyle=orthogonalEdgeStyle;rounded=0;orthogonalLoop=1;jettySize=auto;html=1;exitX=1;exitY=0.5;exitDx=0;exitDy=0;entryX=0;entryY=0.5;entryDx=0;entryDy=0;" edge="1" parent="WIyWlLk6GJQsqaUBKTNV-1" source="mhmYDJ0m5QvtUZYOxY-j-11" target="mhmYDJ0m5QvtUZYOxY-j-14">
          <mxGeometry relative="1" as="geometry">
            <Array as="points">
              <mxPoint x="312" y="63" />
              <mxPoint x="312" y="145" />
            </Array>
          </mxGeometry>
        </mxCell>
        <mxCell id="mhmYDJ0m5QvtUZYOxY-j-23" style="edgeStyle=orthogonalEdgeStyle;rounded=0;orthogonalLoop=1;jettySize=auto;html=1;exitX=1;exitY=0.5;exitDx=0;exitDy=0;entryX=0;entryY=0.5;entryDx=0;entryDy=0;" edge="1" parent="WIyWlLk6GJQsqaUBKTNV-1" source="mhmYDJ0m5QvtUZYOxY-j-11" target="mhmYDJ0m5QvtUZYOxY-j-15">
          <mxGeometry relative="1" as="geometry">
            <Array as="points">
              <mxPoint x="312" y="63" />
              <mxPoint x="312" y="185" />
            </Array>
          </mxGeometry>
        </mxCell>
        <mxCell id="mhmYDJ0m5QvtUZYOxY-j-11" value="Register" style="rounded=1;whiteSpace=wrap;html=1;fontSize=12;glass=0;strokeWidth=2;shadow=0;fillColor=none;strokeColor=#2BE7FC;perimeterSpacing=0;" vertex="1" parent="WIyWlLk6GJQsqaUBKTNV-1">
          <mxGeometry x="182" y="48" width="65" height="30" as="geometry" />
        </mxCell>
        <mxCell id="mhmYDJ0m5QvtUZYOxY-j-12" value="E-mail" style="rounded=1;whiteSpace=wrap;html=1;fontSize=12;glass=0;strokeWidth=2;shadow=0;fillColor=none;strokeColor=#51B94A;perimeterSpacing=0;" vertex="1" parent="WIyWlLk6GJQsqaUBKTNV-1">
          <mxGeometry x="332" y="48" width="65" height="30" as="geometry" />
        </mxCell>
        <mxCell id="mhmYDJ0m5QvtUZYOxY-j-13" value="Date of Birth" style="rounded=1;whiteSpace=wrap;html=1;fontSize=12;glass=0;strokeWidth=2;shadow=0;fillColor=none;strokeColor=#51B94A;perimeterSpacing=0;" vertex="1" parent="WIyWlLk6GJQsqaUBKTNV-1">
          <mxGeometry x="332" y="90" width="65" height="30" as="geometry" />
        </mxCell>
        <mxCell id="mhmYDJ0m5QvtUZYOxY-j-14" value="Username" style="rounded=1;whiteSpace=wrap;html=1;fontSize=12;glass=0;strokeWidth=2;shadow=0;fillColor=none;strokeColor=#51B94A;perimeterSpacing=0;" vertex="1" parent="WIyWlLk6GJQsqaUBKTNV-1">
          <mxGeometry x="332" y="130" width="65" height="30" as="geometry" />
        </mxCell>
        <mxCell id="mhmYDJ0m5QvtUZYOxY-j-167" style="edgeStyle=orthogonalEdgeStyle;rounded=0;orthogonalLoop=1;jettySize=auto;html=1;exitX=0.5;exitY=1;exitDx=0;exitDy=0;entryX=1;entryY=0.5;entryDx=0;entryDy=0;" edge="1" parent="WIyWlLk6GJQsqaUBKTNV-1" source="mhmYDJ0m5QvtUZYOxY-j-15" target="mhmYDJ0m5QvtUZYOxY-j-25">
          <mxGeometry relative="1" as="geometry">
            <Array as="points">
              <mxPoint x="365" y="215" />
            </Array>
          </mxGeometry>
        </mxCell>
        <mxCell id="mhmYDJ0m5QvtUZYOxY-j-15" value="Password" style="rounded=1;whiteSpace=wrap;html=1;fontSize=12;glass=0;strokeWidth=2;shadow=0;fillColor=none;strokeColor=#51B94A;perimeterSpacing=0;" vertex="1" parent="WIyWlLk6GJQsqaUBKTNV-1">
          <mxGeometry x="332" y="170" width="65" height="30" as="geometry" />
        </mxCell>
        <mxCell id="mhmYDJ0m5QvtUZYOxY-j-29" style="edgeStyle=orthogonalEdgeStyle;rounded=0;orthogonalLoop=1;jettySize=auto;html=1;exitX=0.5;exitY=1;exitDx=0;exitDy=0;entryX=0.5;entryY=0;entryDx=0;entryDy=0;" edge="1" parent="WIyWlLk6GJQsqaUBKTNV-1" source="mhmYDJ0m5QvtUZYOxY-j-25" target="mhmYDJ0m5QvtUZYOxY-j-28">
          <mxGeometry relative="1" as="geometry" />
        </mxCell>
        <mxCell id="mhmYDJ0m5QvtUZYOxY-j-51" style="edgeStyle=orthogonalEdgeStyle;rounded=0;orthogonalLoop=1;jettySize=auto;html=1;exitX=0.5;exitY=1;exitDx=0;exitDy=0;entryX=0.5;entryY=0;entryDx=0;entryDy=0;" edge="1" parent="WIyWlLk6GJQsqaUBKTNV-1" source="mhmYDJ0m5QvtUZYOxY-j-25" target="mhmYDJ0m5QvtUZYOxY-j-50">
          <mxGeometry relative="1" as="geometry" />
        </mxCell>
        <mxCell id="mhmYDJ0m5QvtUZYOxY-j-69" style="edgeStyle=orthogonalEdgeStyle;rounded=0;orthogonalLoop=1;jettySize=auto;html=1;exitX=0.5;exitY=1;exitDx=0;exitDy=0;entryX=0.5;entryY=0;entryDx=0;entryDy=0;" edge="1" parent="WIyWlLk6GJQsqaUBKTNV-1" source="mhmYDJ0m5QvtUZYOxY-j-25" target="mhmYDJ0m5QvtUZYOxY-j-68">
          <mxGeometry relative="1" as="geometry" />
        </mxCell>
        <mxCell id="mhmYDJ0m5QvtUZYOxY-j-77" style="edgeStyle=orthogonalEdgeStyle;rounded=0;orthogonalLoop=1;jettySize=auto;html=1;exitX=0.5;exitY=1;exitDx=0;exitDy=0;entryX=0.5;entryY=0;entryDx=0;entryDy=0;" edge="1" parent="WIyWlLk6GJQsqaUBKTNV-1" source="mhmYDJ0m5QvtUZYOxY-j-25" target="mhmYDJ0m5QvtUZYOxY-j-72">
          <mxGeometry relative="1" as="geometry" />
        </mxCell>
        <mxCell id="mhmYDJ0m5QvtUZYOxY-j-119" style="edgeStyle=orthogonalEdgeStyle;rounded=0;orthogonalLoop=1;jettySize=auto;html=1;exitX=0.5;exitY=1;exitDx=0;exitDy=0;entryX=0.5;entryY=0;entryDx=0;entryDy=0;" edge="1" parent="WIyWlLk6GJQsqaUBKTNV-1" source="mhmYDJ0m5QvtUZYOxY-j-25" target="mhmYDJ0m5QvtUZYOxY-j-80">
          <mxGeometry relative="1" as="geometry" />
        </mxCell>
        <mxCell id="mhmYDJ0m5QvtUZYOxY-j-121" style="edgeStyle=orthogonalEdgeStyle;rounded=0;orthogonalLoop=1;jettySize=auto;html=1;exitX=0.5;exitY=1;exitDx=0;exitDy=0;entryX=0.5;entryY=0;entryDx=0;entryDy=0;" edge="1" parent="WIyWlLk6GJQsqaUBKTNV-1" source="mhmYDJ0m5QvtUZYOxY-j-25" target="mhmYDJ0m5QvtUZYOxY-j-120">
          <mxGeometry relative="1" as="geometry" />
        </mxCell>
        <mxCell id="mhmYDJ0m5QvtUZYOxY-j-166" style="edgeStyle=orthogonalEdgeStyle;rounded=0;orthogonalLoop=1;jettySize=auto;html=1;exitX=0.5;exitY=1;exitDx=0;exitDy=0;entryX=0.5;entryY=0;entryDx=0;entryDy=0;" edge="1" parent="WIyWlLk6GJQsqaUBKTNV-1" source="mhmYDJ0m5QvtUZYOxY-j-25" target="mhmYDJ0m5QvtUZYOxY-j-142">
          <mxGeometry relative="1" as="geometry" />
        </mxCell>
        <mxCell id="mhmYDJ0m5QvtUZYOxY-j-25" value="Home" style="rounded=1;whiteSpace=wrap;html=1;fontSize=12;glass=0;strokeWidth=2;shadow=0;fillColor=none;strokeColor=#B98F48;perimeterSpacing=0;" vertex="1" parent="WIyWlLk6GJQsqaUBKTNV-1">
          <mxGeometry x="40" y="200" width="65" height="30" as="geometry" />
        </mxCell>
        <mxCell id="mhmYDJ0m5QvtUZYOxY-j-46" style="edgeStyle=orthogonalEdgeStyle;rounded=0;orthogonalLoop=1;jettySize=auto;html=1;exitX=0.5;exitY=1;exitDx=0;exitDy=0;entryX=0;entryY=0.5;entryDx=0;entryDy=0;" edge="1" parent="WIyWlLk6GJQsqaUBKTNV-1" source="mhmYDJ0m5QvtUZYOxY-j-28" target="mhmYDJ0m5QvtUZYOxY-j-31">
          <mxGeometry relative="1" as="geometry" />
        </mxCell>
        <mxCell id="mhmYDJ0m5QvtUZYOxY-j-47" style="edgeStyle=orthogonalEdgeStyle;rounded=0;orthogonalLoop=1;jettySize=auto;html=1;exitX=0.5;exitY=1;exitDx=0;exitDy=0;entryX=0;entryY=0.5;entryDx=0;entryDy=0;" edge="1" parent="WIyWlLk6GJQsqaUBKTNV-1" source="mhmYDJ0m5QvtUZYOxY-j-28" target="mhmYDJ0m5QvtUZYOxY-j-32">
          <mxGeometry relative="1" as="geometry" />
        </mxCell>
        <mxCell id="mhmYDJ0m5QvtUZYOxY-j-48" style="edgeStyle=orthogonalEdgeStyle;rounded=0;orthogonalLoop=1;jettySize=auto;html=1;exitX=0.5;exitY=1;exitDx=0;exitDy=0;entryX=0;entryY=0.5;entryDx=0;entryDy=0;" edge="1" parent="WIyWlLk6GJQsqaUBKTNV-1" source="mhmYDJ0m5QvtUZYOxY-j-28" target="mhmYDJ0m5QvtUZYOxY-j-33">
          <mxGeometry relative="1" as="geometry" />
        </mxCell>
        <mxCell id="mhmYDJ0m5QvtUZYOxY-j-49" style="edgeStyle=orthogonalEdgeStyle;rounded=0;orthogonalLoop=1;jettySize=auto;html=1;exitX=0.5;exitY=1;exitDx=0;exitDy=0;entryX=0;entryY=0.5;entryDx=0;entryDy=0;" edge="1" parent="WIyWlLk6GJQsqaUBKTNV-1" source="mhmYDJ0m5QvtUZYOxY-j-28" target="mhmYDJ0m5QvtUZYOxY-j-34">
          <mxGeometry relative="1" as="geometry" />
        </mxCell>
        <mxCell id="mhmYDJ0m5QvtUZYOxY-j-173" style="edgeStyle=orthogonalEdgeStyle;rounded=0;orthogonalLoop=1;jettySize=auto;html=1;exitX=0.5;exitY=1;exitDx=0;exitDy=0;entryX=0;entryY=0.5;entryDx=0;entryDy=0;" edge="1" parent="WIyWlLk6GJQsqaUBKTNV-1" source="mhmYDJ0m5QvtUZYOxY-j-28" target="mhmYDJ0m5QvtUZYOxY-j-30">
          <mxGeometry relative="1" as="geometry" />
        </mxCell>
        <mxCell id="mhmYDJ0m5QvtUZYOxY-j-28" value="Store" style="rounded=1;whiteSpace=wrap;html=1;fontSize=12;glass=0;strokeWidth=2;shadow=0;fillColor=none;strokeColor=#B98F48;perimeterSpacing=0;" vertex="1" parent="WIyWlLk6GJQsqaUBKTNV-1">
          <mxGeometry x="40" y="340" width="65" height="30" as="geometry" />
        </mxCell>
        <mxCell id="mhmYDJ0m5QvtUZYOxY-j-30" value="Featured" style="rounded=1;whiteSpace=wrap;html=1;fontSize=12;glass=0;strokeWidth=2;shadow=0;fillColor=none;strokeColor=#2BE7FC;perimeterSpacing=0;" vertex="1" parent="WIyWlLk6GJQsqaUBKTNV-1">
          <mxGeometry x="110" y="390" width="65" height="30" as="geometry" />
        </mxCell>
        <mxCell id="mhmYDJ0m5QvtUZYOxY-j-36" style="edgeStyle=orthogonalEdgeStyle;rounded=0;orthogonalLoop=1;jettySize=auto;html=1;exitX=0.5;exitY=1;exitDx=0;exitDy=0;entryX=0;entryY=0.5;entryDx=0;entryDy=0;" edge="1" parent="WIyWlLk6GJQsqaUBKTNV-1" source="mhmYDJ0m5QvtUZYOxY-j-31" target="mhmYDJ0m5QvtUZYOxY-j-35">
          <mxGeometry relative="1" as="geometry" />
        </mxCell>
        <mxCell id="mhmYDJ0m5QvtUZYOxY-j-31" value="Champions" style="rounded=1;whiteSpace=wrap;html=1;fontSize=12;glass=0;strokeWidth=2;shadow=0;fillColor=none;strokeColor=#2BE7FC;perimeterSpacing=0;" vertex="1" parent="WIyWlLk6GJQsqaUBKTNV-1">
          <mxGeometry x="110" y="430" width="65" height="30" as="geometry" />
        </mxCell>
        <mxCell id="mhmYDJ0m5QvtUZYOxY-j-38" style="edgeStyle=orthogonalEdgeStyle;rounded=0;orthogonalLoop=1;jettySize=auto;html=1;exitX=0.5;exitY=1;exitDx=0;exitDy=0;entryX=0;entryY=0.5;entryDx=0;entryDy=0;" edge="1" parent="WIyWlLk6GJQsqaUBKTNV-1" source="mhmYDJ0m5QvtUZYOxY-j-32" target="mhmYDJ0m5QvtUZYOxY-j-37">
          <mxGeometry relative="1" as="geometry" />
        </mxCell>
        <mxCell id="mhmYDJ0m5QvtUZYOxY-j-32" value="Skins" style="rounded=1;whiteSpace=wrap;html=1;fontSize=12;glass=0;strokeWidth=2;shadow=0;fillColor=none;strokeColor=#2BE7FC;perimeterSpacing=0;" vertex="1" parent="WIyWlLk6GJQsqaUBKTNV-1">
          <mxGeometry x="110" y="520" width="65" height="30" as="geometry" />
        </mxCell>
        <mxCell id="mhmYDJ0m5QvtUZYOxY-j-40" style="edgeStyle=orthogonalEdgeStyle;rounded=0;orthogonalLoop=1;jettySize=auto;html=1;exitX=0.5;exitY=1;exitDx=0;exitDy=0;entryX=0;entryY=0.5;entryDx=0;entryDy=0;" edge="1" parent="WIyWlLk6GJQsqaUBKTNV-1" source="mhmYDJ0m5QvtUZYOxY-j-33" target="mhmYDJ0m5QvtUZYOxY-j-39">
          <mxGeometry relative="1" as="geometry" />
        </mxCell>
        <mxCell id="mhmYDJ0m5QvtUZYOxY-j-33" value="Merch" style="rounded=1;whiteSpace=wrap;html=1;fontSize=12;glass=0;strokeWidth=2;shadow=0;fillColor=none;strokeColor=#2BE7FC;perimeterSpacing=0;" vertex="1" parent="WIyWlLk6GJQsqaUBKTNV-1">
          <mxGeometry x="110" y="610" width="65" height="30" as="geometry" />
        </mxCell>
        <mxCell id="mhmYDJ0m5QvtUZYOxY-j-34" value="Other" style="rounded=1;whiteSpace=wrap;html=1;fontSize=12;glass=0;strokeWidth=2;shadow=0;fillColor=none;strokeColor=#2BE7FC;perimeterSpacing=0;" vertex="1" parent="WIyWlLk6GJQsqaUBKTNV-1">
          <mxGeometry x="110" y="700" width="65" height="30" as="geometry" />
        </mxCell>
        <mxCell id="mhmYDJ0m5QvtUZYOxY-j-35" value="Buy Champions" style="rounded=1;whiteSpace=wrap;html=1;fontSize=12;glass=0;strokeWidth=2;shadow=0;fillColor=none;strokeColor=#51B94A;perimeterSpacing=0;" vertex="1" parent="WIyWlLk6GJQsqaUBKTNV-1">
          <mxGeometry x="188" y="474" width="65" height="30" as="geometry" />
        </mxCell>
        <mxCell id="mhmYDJ0m5QvtUZYOxY-j-37" value="Buy Skins" style="rounded=1;whiteSpace=wrap;html=1;fontSize=12;glass=0;strokeWidth=2;shadow=0;fillColor=none;strokeColor=#51B94A;perimeterSpacing=0;" vertex="1" parent="WIyWlLk6GJQsqaUBKTNV-1">
          <mxGeometry x="188" y="560" width="65" height="30" as="geometry" />
        </mxCell>
        <mxCell id="mhmYDJ0m5QvtUZYOxY-j-39" value="Buy Merch" style="rounded=1;whiteSpace=wrap;html=1;fontSize=12;glass=0;strokeWidth=2;shadow=0;fillColor=none;strokeColor=#51B94A;perimeterSpacing=0;" vertex="1" parent="WIyWlLk6GJQsqaUBKTNV-1">
          <mxGeometry x="188" y="650" width="65" height="30" as="geometry" />
        </mxCell>
        <mxCell id="mhmYDJ0m5QvtUZYOxY-j-53" style="edgeStyle=orthogonalEdgeStyle;rounded=0;orthogonalLoop=1;jettySize=auto;html=1;exitX=0.5;exitY=1;exitDx=0;exitDy=0;entryX=0;entryY=0.5;entryDx=0;entryDy=0;" edge="1" parent="WIyWlLk6GJQsqaUBKTNV-1" source="mhmYDJ0m5QvtUZYOxY-j-50" target="mhmYDJ0m5QvtUZYOxY-j-52">
          <mxGeometry relative="1" as="geometry" />
        </mxCell>
        <mxCell id="mhmYDJ0m5QvtUZYOxY-j-61" style="edgeStyle=orthogonalEdgeStyle;rounded=0;orthogonalLoop=1;jettySize=auto;html=1;exitX=0.5;exitY=1;exitDx=0;exitDy=0;entryX=0;entryY=0.5;entryDx=0;entryDy=0;" edge="1" parent="WIyWlLk6GJQsqaUBKTNV-1" source="mhmYDJ0m5QvtUZYOxY-j-50" target="mhmYDJ0m5QvtUZYOxY-j-60">
          <mxGeometry relative="1" as="geometry" />
        </mxCell>
        <mxCell id="mhmYDJ0m5QvtUZYOxY-j-50" value="Loot" style="rounded=1;whiteSpace=wrap;html=1;fontSize=12;glass=0;strokeWidth=2;shadow=0;fillColor=none;strokeColor=#B98F48;perimeterSpacing=0;" vertex="1" parent="WIyWlLk6GJQsqaUBKTNV-1">
          <mxGeometry x="236" y="340" width="65" height="30" as="geometry" />
        </mxCell>
        <mxCell id="mhmYDJ0m5QvtUZYOxY-j-55" style="edgeStyle=orthogonalEdgeStyle;rounded=0;orthogonalLoop=1;jettySize=auto;html=1;exitX=0.5;exitY=1;exitDx=0;exitDy=0;entryX=0;entryY=0.5;entryDx=0;entryDy=0;" edge="1" parent="WIyWlLk6GJQsqaUBKTNV-1" source="mhmYDJ0m5QvtUZYOxY-j-52" target="mhmYDJ0m5QvtUZYOxY-j-54">
          <mxGeometry relative="1" as="geometry" />
        </mxCell>
        <mxCell id="mhmYDJ0m5QvtUZYOxY-j-57" style="edgeStyle=orthogonalEdgeStyle;rounded=0;orthogonalLoop=1;jettySize=auto;html=1;exitX=0.5;exitY=1;exitDx=0;exitDy=0;entryX=0;entryY=0.5;entryDx=0;entryDy=0;" edge="1" parent="WIyWlLk6GJQsqaUBKTNV-1" source="mhmYDJ0m5QvtUZYOxY-j-52" target="mhmYDJ0m5QvtUZYOxY-j-56">
          <mxGeometry relative="1" as="geometry" />
        </mxCell>
        <mxCell id="mhmYDJ0m5QvtUZYOxY-j-59" style="edgeStyle=orthogonalEdgeStyle;rounded=0;orthogonalLoop=1;jettySize=auto;html=1;exitX=0.5;exitY=1;exitDx=0;exitDy=0;entryX=0;entryY=0.5;entryDx=0;entryDy=0;" edge="1" parent="WIyWlLk6GJQsqaUBKTNV-1" source="mhmYDJ0m5QvtUZYOxY-j-52" target="mhmYDJ0m5QvtUZYOxY-j-58">
          <mxGeometry relative="1" as="geometry" />
        </mxCell>
        <mxCell id="mhmYDJ0m5QvtUZYOxY-j-52" value="Collection" style="rounded=1;whiteSpace=wrap;html=1;fontSize=12;glass=0;strokeWidth=2;shadow=0;fillColor=none;strokeColor=#2BE7FC;perimeterSpacing=0;" vertex="1" parent="WIyWlLk6GJQsqaUBKTNV-1">
          <mxGeometry x="324" y="380" width="65" height="30" as="geometry" />
        </mxCell>
        <mxCell id="mhmYDJ0m5QvtUZYOxY-j-54" value="Champions" style="rounded=1;whiteSpace=wrap;html=1;fontSize=12;glass=0;strokeWidth=2;shadow=0;fillColor=none;strokeColor=#2BE7FC;perimeterSpacing=0;" vertex="1" parent="WIyWlLk6GJQsqaUBKTNV-1">
          <mxGeometry x="414" y="420" width="65" height="30" as="geometry" />
        </mxCell>
        <mxCell id="mhmYDJ0m5QvtUZYOxY-j-56" value="Skins" style="rounded=1;whiteSpace=wrap;html=1;fontSize=12;glass=0;strokeWidth=2;shadow=0;fillColor=none;strokeColor=#2BE7FC;perimeterSpacing=0;" vertex="1" parent="WIyWlLk6GJQsqaUBKTNV-1">
          <mxGeometry x="414" y="460" width="65" height="30" as="geometry" />
        </mxCell>
        <mxCell id="mhmYDJ0m5QvtUZYOxY-j-58" value="Other" style="rounded=1;whiteSpace=wrap;html=1;fontSize=12;glass=0;strokeWidth=2;shadow=0;fillColor=none;strokeColor=#2BE7FC;perimeterSpacing=0;" vertex="1" parent="WIyWlLk6GJQsqaUBKTNV-1">
          <mxGeometry x="414" y="500" width="65" height="30" as="geometry" />
        </mxCell>
        <mxCell id="mhmYDJ0m5QvtUZYOxY-j-65" style="edgeStyle=orthogonalEdgeStyle;rounded=0;orthogonalLoop=1;jettySize=auto;html=1;exitX=0.5;exitY=1;exitDx=0;exitDy=0;entryX=0;entryY=0.5;entryDx=0;entryDy=0;" edge="1" parent="WIyWlLk6GJQsqaUBKTNV-1" source="mhmYDJ0m5QvtUZYOxY-j-60" target="mhmYDJ0m5QvtUZYOxY-j-62">
          <mxGeometry relative="1" as="geometry" />
        </mxCell>
        <mxCell id="mhmYDJ0m5QvtUZYOxY-j-66" style="edgeStyle=orthogonalEdgeStyle;rounded=0;orthogonalLoop=1;jettySize=auto;html=1;exitX=0.5;exitY=1;exitDx=0;exitDy=0;entryX=0;entryY=0.5;entryDx=0;entryDy=0;" edge="1" parent="WIyWlLk6GJQsqaUBKTNV-1" source="mhmYDJ0m5QvtUZYOxY-j-60" target="mhmYDJ0m5QvtUZYOxY-j-63">
          <mxGeometry relative="1" as="geometry" />
        </mxCell>
        <mxCell id="mhmYDJ0m5QvtUZYOxY-j-67" style="edgeStyle=orthogonalEdgeStyle;rounded=0;orthogonalLoop=1;jettySize=auto;html=1;exitX=0.5;exitY=1;exitDx=0;exitDy=0;entryX=0;entryY=0.5;entryDx=0;entryDy=0;" edge="1" parent="WIyWlLk6GJQsqaUBKTNV-1" source="mhmYDJ0m5QvtUZYOxY-j-60" target="mhmYDJ0m5QvtUZYOxY-j-64">
          <mxGeometry relative="1" as="geometry" />
        </mxCell>
        <mxCell id="mhmYDJ0m5QvtUZYOxY-j-60" value="Craft" style="rounded=1;whiteSpace=wrap;html=1;fontSize=12;glass=0;strokeWidth=2;shadow=0;fillColor=none;strokeColor=#2BE7FC;perimeterSpacing=0;" vertex="1" parent="WIyWlLk6GJQsqaUBKTNV-1">
          <mxGeometry x="324" y="550" width="65" height="30" as="geometry" />
        </mxCell>
        <mxCell id="mhmYDJ0m5QvtUZYOxY-j-62" value="Craft Champions" style="rounded=1;whiteSpace=wrap;html=1;fontSize=12;glass=0;strokeWidth=2;shadow=0;fillColor=none;strokeColor=#51B94A;perimeterSpacing=0;" vertex="1" parent="WIyWlLk6GJQsqaUBKTNV-1">
          <mxGeometry x="414" y="590" width="65" height="30" as="geometry" />
        </mxCell>
        <mxCell id="mhmYDJ0m5QvtUZYOxY-j-63" value="Craft Skins" style="rounded=1;whiteSpace=wrap;html=1;fontSize=12;glass=0;strokeWidth=2;shadow=0;fillColor=none;strokeColor=#51B94A;perimeterSpacing=0;" vertex="1" parent="WIyWlLk6GJQsqaUBKTNV-1">
          <mxGeometry x="414" y="630" width="65" height="30" as="geometry" />
        </mxCell>
        <mxCell id="mhmYDJ0m5QvtUZYOxY-j-64" value="Craft Emotes" style="rounded=1;whiteSpace=wrap;html=1;fontSize=12;glass=0;strokeWidth=2;shadow=0;fillColor=none;strokeColor=#51B94A;perimeterSpacing=0;" vertex="1" parent="WIyWlLk6GJQsqaUBKTNV-1">
          <mxGeometry x="414" y="670" width="65" height="30" as="geometry" />
        </mxCell>
        <mxCell id="mhmYDJ0m5QvtUZYOxY-j-71" style="edgeStyle=orthogonalEdgeStyle;rounded=0;orthogonalLoop=1;jettySize=auto;html=1;exitX=0.5;exitY=1;exitDx=0;exitDy=0;entryX=0;entryY=0.5;entryDx=0;entryDy=0;" edge="1" parent="WIyWlLk6GJQsqaUBKTNV-1" source="mhmYDJ0m5QvtUZYOxY-j-68" target="mhmYDJ0m5QvtUZYOxY-j-70">
          <mxGeometry relative="1" as="geometry" />
        </mxCell>
        <mxCell id="mhmYDJ0m5QvtUZYOxY-j-68" value="Patch Notes" style="rounded=1;whiteSpace=wrap;html=1;fontSize=12;glass=0;strokeWidth=2;shadow=0;fillColor=none;strokeColor=#B98F48;perimeterSpacing=0;" vertex="1" parent="WIyWlLk6GJQsqaUBKTNV-1">
          <mxGeometry x="470" y="340" width="65" height="30" as="geometry" />
        </mxCell>
        <mxCell id="mhmYDJ0m5QvtUZYOxY-j-70" value="Read Detailed Current Patch Notes" style="rounded=1;whiteSpace=wrap;html=1;fontSize=12;glass=0;strokeWidth=2;shadow=0;fillColor=none;strokeColor=#51B94A;perimeterSpacing=0;" vertex="1" parent="WIyWlLk6GJQsqaUBKTNV-1">
          <mxGeometry x="540" y="380" width="65" height="70" as="geometry" />
        </mxCell>
        <mxCell id="mhmYDJ0m5QvtUZYOxY-j-75" style="edgeStyle=orthogonalEdgeStyle;rounded=0;orthogonalLoop=1;jettySize=auto;html=1;exitX=0.5;exitY=1;exitDx=0;exitDy=0;entryX=0;entryY=0.5;entryDx=0;entryDy=0;" edge="1" parent="WIyWlLk6GJQsqaUBKTNV-1" source="mhmYDJ0m5QvtUZYOxY-j-72" target="mhmYDJ0m5QvtUZYOxY-j-73">
          <mxGeometry relative="1" as="geometry" />
        </mxCell>
        <mxCell id="mhmYDJ0m5QvtUZYOxY-j-76" style="edgeStyle=orthogonalEdgeStyle;rounded=0;orthogonalLoop=1;jettySize=auto;html=1;exitX=0.5;exitY=1;exitDx=0;exitDy=0;entryX=0;entryY=0.5;entryDx=0;entryDy=0;" edge="1" parent="WIyWlLk6GJQsqaUBKTNV-1" source="mhmYDJ0m5QvtUZYOxY-j-72" target="mhmYDJ0m5QvtUZYOxY-j-74">
          <mxGeometry relative="1" as="geometry">
            <Array as="points">
              <mxPoint x="654" y="407" />
              <mxPoint x="653" y="407" />
              <mxPoint x="653" y="459" />
            </Array>
          </mxGeometry>
        </mxCell>
        <mxCell id="mhmYDJ0m5QvtUZYOxY-j-79" style="edgeStyle=orthogonalEdgeStyle;rounded=0;orthogonalLoop=1;jettySize=auto;html=1;exitX=0.5;exitY=1;exitDx=0;exitDy=0;entryX=0;entryY=0.5;entryDx=0;entryDy=0;" edge="1" parent="WIyWlLk6GJQsqaUBKTNV-1" source="mhmYDJ0m5QvtUZYOxY-j-72" target="mhmYDJ0m5QvtUZYOxY-j-78">
          <mxGeometry relative="1" as="geometry" />
        </mxCell>
        <mxCell id="mhmYDJ0m5QvtUZYOxY-j-72" value="Missions" style="rounded=1;whiteSpace=wrap;html=1;fontSize=12;glass=0;strokeWidth=2;shadow=0;fillColor=none;strokeColor=#B98F48;perimeterSpacing=0;" vertex="1" parent="WIyWlLk6GJQsqaUBKTNV-1">
          <mxGeometry x="621" y="340" width="65" height="30" as="geometry" />
        </mxCell>
        <mxCell id="mhmYDJ0m5QvtUZYOxY-j-73" value="See Current Missions" style="rounded=1;whiteSpace=wrap;html=1;fontSize=12;glass=0;strokeWidth=2;shadow=0;fillColor=none;strokeColor=#51B94A;perimeterSpacing=0;" vertex="1" parent="WIyWlLk6GJQsqaUBKTNV-1">
          <mxGeometry x="673" y="380" width="65" height="50" as="geometry" />
        </mxCell>
        <mxCell id="mhmYDJ0m5QvtUZYOxY-j-74" value="See Done Missions" style="rounded=1;whiteSpace=wrap;html=1;fontSize=12;glass=0;strokeWidth=2;shadow=0;fillColor=none;strokeColor=#51B94A;perimeterSpacing=0;" vertex="1" parent="WIyWlLk6GJQsqaUBKTNV-1">
          <mxGeometry x="673" y="443.5" width="65" height="30" as="geometry" />
        </mxCell>
        <mxCell id="mhmYDJ0m5QvtUZYOxY-j-78" value="Collect Rewards" style="rounded=1;whiteSpace=wrap;html=1;fontSize=12;glass=0;strokeWidth=2;shadow=0;fillColor=none;strokeColor=#51B94A;perimeterSpacing=0;" vertex="1" parent="WIyWlLk6GJQsqaUBKTNV-1">
          <mxGeometry x="673" y="490" width="65" height="30" as="geometry" />
        </mxCell>
        <mxCell id="mhmYDJ0m5QvtUZYOxY-j-85" style="edgeStyle=orthogonalEdgeStyle;rounded=0;orthogonalLoop=1;jettySize=auto;html=1;exitX=0.5;exitY=1;exitDx=0;exitDy=0;entryX=0;entryY=0.5;entryDx=0;entryDy=0;" edge="1" parent="WIyWlLk6GJQsqaUBKTNV-1" source="mhmYDJ0m5QvtUZYOxY-j-80" target="mhmYDJ0m5QvtUZYOxY-j-81">
          <mxGeometry relative="1" as="geometry" />
        </mxCell>
        <mxCell id="mhmYDJ0m5QvtUZYOxY-j-86" style="edgeStyle=orthogonalEdgeStyle;rounded=0;orthogonalLoop=1;jettySize=auto;html=1;exitX=0.5;exitY=1;exitDx=0;exitDy=0;entryX=0;entryY=0.5;entryDx=0;entryDy=0;" edge="1" parent="WIyWlLk6GJQsqaUBKTNV-1" source="mhmYDJ0m5QvtUZYOxY-j-80" target="mhmYDJ0m5QvtUZYOxY-j-82">
          <mxGeometry relative="1" as="geometry" />
        </mxCell>
        <mxCell id="mhmYDJ0m5QvtUZYOxY-j-87" style="edgeStyle=orthogonalEdgeStyle;rounded=0;orthogonalLoop=1;jettySize=auto;html=1;exitX=0.5;exitY=1;exitDx=0;exitDy=0;entryX=0;entryY=0.5;entryDx=0;entryDy=0;" edge="1" parent="WIyWlLk6GJQsqaUBKTNV-1" source="mhmYDJ0m5QvtUZYOxY-j-80" target="mhmYDJ0m5QvtUZYOxY-j-83">
          <mxGeometry relative="1" as="geometry" />
        </mxCell>
        <mxCell id="mhmYDJ0m5QvtUZYOxY-j-89" style="edgeStyle=orthogonalEdgeStyle;rounded=0;orthogonalLoop=1;jettySize=auto;html=1;exitX=0.5;exitY=1;exitDx=0;exitDy=0;entryX=0;entryY=0.5;entryDx=0;entryDy=0;" edge="1" parent="WIyWlLk6GJQsqaUBKTNV-1" source="mhmYDJ0m5QvtUZYOxY-j-80" target="mhmYDJ0m5QvtUZYOxY-j-84">
          <mxGeometry relative="1" as="geometry" />
        </mxCell>
        <mxCell id="mhmYDJ0m5QvtUZYOxY-j-80" value="Play" style="rounded=1;whiteSpace=wrap;html=1;fontSize=12;glass=0;strokeWidth=2;shadow=0;fillColor=none;strokeColor=#B98F48;perimeterSpacing=0;" vertex="1" parent="WIyWlLk6GJQsqaUBKTNV-1">
          <mxGeometry x="750" y="340" width="65" height="30" as="geometry" />
        </mxCell>
        <mxCell id="mhmYDJ0m5QvtUZYOxY-j-96" style="edgeStyle=orthogonalEdgeStyle;rounded=0;orthogonalLoop=1;jettySize=auto;html=1;exitX=1;exitY=0.5;exitDx=0;exitDy=0;entryX=0;entryY=0.5;entryDx=0;entryDy=0;" edge="1" parent="WIyWlLk6GJQsqaUBKTNV-1" source="mhmYDJ0m5QvtUZYOxY-j-81" target="mhmYDJ0m5QvtUZYOxY-j-90">
          <mxGeometry relative="1" as="geometry" />
        </mxCell>
        <mxCell id="mhmYDJ0m5QvtUZYOxY-j-81" value="PvP" style="rounded=1;whiteSpace=wrap;html=1;fontSize=12;glass=0;strokeWidth=2;shadow=0;fillColor=none;strokeColor=#2BE7FC;perimeterSpacing=0;" vertex="1" parent="WIyWlLk6GJQsqaUBKTNV-1">
          <mxGeometry x="802" y="390" width="65" height="30" as="geometry" />
        </mxCell>
        <mxCell id="mhmYDJ0m5QvtUZYOxY-j-97" style="edgeStyle=orthogonalEdgeStyle;rounded=0;orthogonalLoop=1;jettySize=auto;html=1;exitX=1;exitY=0.5;exitDx=0;exitDy=0;entryX=0;entryY=0.5;entryDx=0;entryDy=0;" edge="1" parent="WIyWlLk6GJQsqaUBKTNV-1" source="mhmYDJ0m5QvtUZYOxY-j-82" target="mhmYDJ0m5QvtUZYOxY-j-90">
          <mxGeometry relative="1" as="geometry" />
        </mxCell>
        <mxCell id="mhmYDJ0m5QvtUZYOxY-j-82" value="Bot" style="rounded=1;whiteSpace=wrap;html=1;fontSize=12;glass=0;strokeWidth=2;shadow=0;fillColor=none;strokeColor=#2BE7FC;perimeterSpacing=0;" vertex="1" parent="WIyWlLk6GJQsqaUBKTNV-1">
          <mxGeometry x="802" y="430" width="65" height="30" as="geometry" />
        </mxCell>
        <mxCell id="mhmYDJ0m5QvtUZYOxY-j-98" style="edgeStyle=orthogonalEdgeStyle;rounded=0;orthogonalLoop=1;jettySize=auto;html=1;exitX=1;exitY=0.5;exitDx=0;exitDy=0;entryX=0;entryY=0.5;entryDx=0;entryDy=0;" edge="1" parent="WIyWlLk6GJQsqaUBKTNV-1" source="mhmYDJ0m5QvtUZYOxY-j-83" target="mhmYDJ0m5QvtUZYOxY-j-90">
          <mxGeometry relative="1" as="geometry" />
        </mxCell>
        <mxCell id="mhmYDJ0m5QvtUZYOxY-j-83" value="Custom" style="rounded=1;whiteSpace=wrap;html=1;fontSize=12;glass=0;strokeWidth=2;shadow=0;fillColor=none;strokeColor=#2BE7FC;perimeterSpacing=0;" vertex="1" parent="WIyWlLk6GJQsqaUBKTNV-1">
          <mxGeometry x="802" y="470" width="65" height="30" as="geometry" />
        </mxCell>
        <mxCell id="mhmYDJ0m5QvtUZYOxY-j-99" style="edgeStyle=orthogonalEdgeStyle;rounded=0;orthogonalLoop=1;jettySize=auto;html=1;exitX=1;exitY=0.5;exitDx=0;exitDy=0;entryX=0;entryY=0.5;entryDx=0;entryDy=0;" edge="1" parent="WIyWlLk6GJQsqaUBKTNV-1" source="mhmYDJ0m5QvtUZYOxY-j-84" target="mhmYDJ0m5QvtUZYOxY-j-90">
          <mxGeometry relative="1" as="geometry" />
        </mxCell>
        <mxCell id="mhmYDJ0m5QvtUZYOxY-j-84" value="Clash" style="rounded=1;whiteSpace=wrap;html=1;fontSize=12;glass=0;strokeWidth=2;shadow=0;fillColor=none;strokeColor=#2BE7FC;perimeterSpacing=0;" vertex="1" parent="WIyWlLk6GJQsqaUBKTNV-1">
          <mxGeometry x="802" y="511" width="65" height="30" as="geometry" />
        </mxCell>
        <mxCell id="mhmYDJ0m5QvtUZYOxY-j-111" style="edgeStyle=orthogonalEdgeStyle;rounded=0;orthogonalLoop=1;jettySize=auto;html=1;exitX=0.5;exitY=1;exitDx=0;exitDy=0;entryX=0;entryY=0.5;entryDx=0;entryDy=0;" edge="1" parent="WIyWlLk6GJQsqaUBKTNV-1" source="mhmYDJ0m5QvtUZYOxY-j-90" target="mhmYDJ0m5QvtUZYOxY-j-100">
          <mxGeometry relative="1" as="geometry" />
        </mxCell>
        <mxCell id="mhmYDJ0m5QvtUZYOxY-j-112" style="edgeStyle=orthogonalEdgeStyle;rounded=0;orthogonalLoop=1;jettySize=auto;html=1;exitX=0.5;exitY=1;exitDx=0;exitDy=0;entryX=0;entryY=0.5;entryDx=0;entryDy=0;" edge="1" parent="WIyWlLk6GJQsqaUBKTNV-1" source="mhmYDJ0m5QvtUZYOxY-j-90" target="mhmYDJ0m5QvtUZYOxY-j-101">
          <mxGeometry relative="1" as="geometry" />
        </mxCell>
        <mxCell id="mhmYDJ0m5QvtUZYOxY-j-113" style="edgeStyle=orthogonalEdgeStyle;rounded=0;orthogonalLoop=1;jettySize=auto;html=1;exitX=0.5;exitY=1;exitDx=0;exitDy=0;entryX=0;entryY=0.5;entryDx=0;entryDy=0;" edge="1" parent="WIyWlLk6GJQsqaUBKTNV-1" source="mhmYDJ0m5QvtUZYOxY-j-90" target="mhmYDJ0m5QvtUZYOxY-j-102">
          <mxGeometry relative="1" as="geometry" />
        </mxCell>
        <mxCell id="mhmYDJ0m5QvtUZYOxY-j-114" style="edgeStyle=orthogonalEdgeStyle;rounded=0;orthogonalLoop=1;jettySize=auto;html=1;exitX=0.5;exitY=1;exitDx=0;exitDy=0;entryX=0;entryY=0.5;entryDx=0;entryDy=0;" edge="1" parent="WIyWlLk6GJQsqaUBKTNV-1" source="mhmYDJ0m5QvtUZYOxY-j-90" target="mhmYDJ0m5QvtUZYOxY-j-103">
          <mxGeometry relative="1" as="geometry" />
        </mxCell>
        <mxCell id="mhmYDJ0m5QvtUZYOxY-j-115" style="edgeStyle=orthogonalEdgeStyle;rounded=0;orthogonalLoop=1;jettySize=auto;html=1;exitX=0.5;exitY=1;exitDx=0;exitDy=0;entryX=0;entryY=0.5;entryDx=0;entryDy=0;" edge="1" parent="WIyWlLk6GJQsqaUBKTNV-1" source="mhmYDJ0m5QvtUZYOxY-j-90" target="mhmYDJ0m5QvtUZYOxY-j-104">
          <mxGeometry relative="1" as="geometry" />
        </mxCell>
        <mxCell id="mhmYDJ0m5QvtUZYOxY-j-90" value="Lobby" style="rounded=1;whiteSpace=wrap;html=1;fontSize=12;glass=0;strokeWidth=2;shadow=0;fillColor=none;strokeColor=#2BE7FC;perimeterSpacing=0;" vertex="1" parent="WIyWlLk6GJQsqaUBKTNV-1">
          <mxGeometry x="920" y="450" width="65" height="30" as="geometry" />
        </mxCell>
        <mxCell id="mhmYDJ0m5QvtUZYOxY-j-100" value="Invite" style="rounded=1;whiteSpace=wrap;html=1;fontSize=12;glass=0;strokeWidth=2;shadow=0;fillColor=none;strokeColor=#51B94A;perimeterSpacing=0;" vertex="1" parent="WIyWlLk6GJQsqaUBKTNV-1">
          <mxGeometry x="972" y="500" width="65" height="30" as="geometry" />
        </mxCell>
        <mxCell id="mhmYDJ0m5QvtUZYOxY-j-101" value="Kick" style="rounded=1;whiteSpace=wrap;html=1;fontSize=12;glass=0;strokeWidth=2;shadow=0;fillColor=none;strokeColor=#51B94A;perimeterSpacing=0;" vertex="1" parent="WIyWlLk6GJQsqaUBKTNV-1">
          <mxGeometry x="972" y="541" width="65" height="30" as="geometry" />
        </mxCell>
        <mxCell id="mhmYDJ0m5QvtUZYOxY-j-102" value="Promote" style="rounded=1;whiteSpace=wrap;html=1;fontSize=12;glass=0;strokeWidth=2;shadow=0;fillColor=none;strokeColor=#51B94A;perimeterSpacing=0;" vertex="1" parent="WIyWlLk6GJQsqaUBKTNV-1">
          <mxGeometry x="972" y="581" width="65" height="30" as="geometry" />
        </mxCell>
        <mxCell id="mhmYDJ0m5QvtUZYOxY-j-103" value="Chat" style="rounded=1;whiteSpace=wrap;html=1;fontSize=12;glass=0;strokeWidth=2;shadow=0;fillColor=none;strokeColor=#51B94A;perimeterSpacing=0;" vertex="1" parent="WIyWlLk6GJQsqaUBKTNV-1">
          <mxGeometry x="972" y="621" width="65" height="30" as="geometry" />
        </mxCell>
        <mxCell id="mhmYDJ0m5QvtUZYOxY-j-116" style="edgeStyle=orthogonalEdgeStyle;rounded=0;orthogonalLoop=1;jettySize=auto;html=1;exitX=0.5;exitY=1;exitDx=0;exitDy=0;entryX=0;entryY=0.5;entryDx=0;entryDy=0;" edge="1" parent="WIyWlLk6GJQsqaUBKTNV-1" source="mhmYDJ0m5QvtUZYOxY-j-104" target="mhmYDJ0m5QvtUZYOxY-j-105">
          <mxGeometry relative="1" as="geometry" />
        </mxCell>
        <mxCell id="mhmYDJ0m5QvtUZYOxY-j-104" value="Queue" style="rounded=1;whiteSpace=wrap;html=1;fontSize=12;glass=0;strokeWidth=2;shadow=0;fillColor=none;strokeColor=#51B94A;perimeterSpacing=0;" vertex="1" parent="WIyWlLk6GJQsqaUBKTNV-1">
          <mxGeometry x="972" y="661" width="65" height="30" as="geometry" />
        </mxCell>
        <mxCell id="mhmYDJ0m5QvtUZYOxY-j-117" style="edgeStyle=orthogonalEdgeStyle;rounded=0;orthogonalLoop=1;jettySize=auto;html=1;exitX=0.5;exitY=1;exitDx=0;exitDy=0;entryX=0;entryY=0.5;entryDx=0;entryDy=0;" edge="1" parent="WIyWlLk6GJQsqaUBKTNV-1" source="mhmYDJ0m5QvtUZYOxY-j-105" target="mhmYDJ0m5QvtUZYOxY-j-106">
          <mxGeometry relative="1" as="geometry" />
        </mxCell>
        <mxCell id="mhmYDJ0m5QvtUZYOxY-j-118" style="edgeStyle=orthogonalEdgeStyle;rounded=0;orthogonalLoop=1;jettySize=auto;html=1;exitX=0.5;exitY=1;exitDx=0;exitDy=0;entryX=0;entryY=0.5;entryDx=0;entryDy=0;" edge="1" parent="WIyWlLk6GJQsqaUBKTNV-1" source="mhmYDJ0m5QvtUZYOxY-j-105" target="mhmYDJ0m5QvtUZYOxY-j-107">
          <mxGeometry relative="1" as="geometry" />
        </mxCell>
        <mxCell id="mhmYDJ0m5QvtUZYOxY-j-105" value="Match Found" style="rounded=1;whiteSpace=wrap;html=1;fontSize=12;glass=0;strokeWidth=2;shadow=0;fillColor=none;strokeColor=#2BE7FC;perimeterSpacing=0;" vertex="1" parent="WIyWlLk6GJQsqaUBKTNV-1">
          <mxGeometry x="1024" y="711" width="65" height="30" as="geometry" />
        </mxCell>
        <mxCell id="mhmYDJ0m5QvtUZYOxY-j-106" value="Accept" style="rounded=1;whiteSpace=wrap;html=1;fontSize=12;glass=0;strokeWidth=2;shadow=0;fillColor=none;strokeColor=#51B94A;perimeterSpacing=0;" vertex="1" parent="WIyWlLk6GJQsqaUBKTNV-1">
          <mxGeometry x="1076" y="761" width="65" height="30" as="geometry" />
        </mxCell>
        <mxCell id="mhmYDJ0m5QvtUZYOxY-j-107" value="See Accepted Players" style="rounded=1;whiteSpace=wrap;html=1;fontSize=12;glass=0;strokeWidth=2;shadow=0;fillColor=none;strokeColor=#51B94A;perimeterSpacing=0;" vertex="1" parent="WIyWlLk6GJQsqaUBKTNV-1">
          <mxGeometry x="1076" y="800" width="65" height="50" as="geometry" />
        </mxCell>
        <mxCell id="mhmYDJ0m5QvtUZYOxY-j-130" style="edgeStyle=orthogonalEdgeStyle;rounded=0;orthogonalLoop=1;jettySize=auto;html=1;exitX=0.5;exitY=1;exitDx=0;exitDy=0;entryX=0;entryY=0.5;entryDx=0;entryDy=0;" edge="1" parent="WIyWlLk6GJQsqaUBKTNV-1" source="mhmYDJ0m5QvtUZYOxY-j-120" target="mhmYDJ0m5QvtUZYOxY-j-122">
          <mxGeometry relative="1" as="geometry" />
        </mxCell>
        <mxCell id="mhmYDJ0m5QvtUZYOxY-j-131" style="edgeStyle=orthogonalEdgeStyle;rounded=0;orthogonalLoop=1;jettySize=auto;html=1;exitX=0.5;exitY=1;exitDx=0;exitDy=0;entryX=0;entryY=0.5;entryDx=0;entryDy=0;" edge="1" parent="WIyWlLk6GJQsqaUBKTNV-1" source="mhmYDJ0m5QvtUZYOxY-j-120" target="mhmYDJ0m5QvtUZYOxY-j-123">
          <mxGeometry relative="1" as="geometry" />
        </mxCell>
        <mxCell id="mhmYDJ0m5QvtUZYOxY-j-132" style="edgeStyle=orthogonalEdgeStyle;rounded=0;orthogonalLoop=1;jettySize=auto;html=1;exitX=0.5;exitY=1;exitDx=0;exitDy=0;entryX=0;entryY=0.5;entryDx=0;entryDy=0;" edge="1" parent="WIyWlLk6GJQsqaUBKTNV-1" source="mhmYDJ0m5QvtUZYOxY-j-120" target="mhmYDJ0m5QvtUZYOxY-j-124">
          <mxGeometry relative="1" as="geometry" />
        </mxCell>
        <mxCell id="mhmYDJ0m5QvtUZYOxY-j-133" style="edgeStyle=orthogonalEdgeStyle;rounded=0;orthogonalLoop=1;jettySize=auto;html=1;exitX=0.5;exitY=1;exitDx=0;exitDy=0;entryX=0;entryY=0.5;entryDx=0;entryDy=0;" edge="1" parent="WIyWlLk6GJQsqaUBKTNV-1" source="mhmYDJ0m5QvtUZYOxY-j-120" target="mhmYDJ0m5QvtUZYOxY-j-125">
          <mxGeometry relative="1" as="geometry" />
        </mxCell>
        <mxCell id="mhmYDJ0m5QvtUZYOxY-j-134" style="edgeStyle=orthogonalEdgeStyle;rounded=0;orthogonalLoop=1;jettySize=auto;html=1;exitX=0.5;exitY=1;exitDx=0;exitDy=0;entryX=0;entryY=0.5;entryDx=0;entryDy=0;" edge="1" parent="WIyWlLk6GJQsqaUBKTNV-1" source="mhmYDJ0m5QvtUZYOxY-j-120" target="mhmYDJ0m5QvtUZYOxY-j-126">
          <mxGeometry relative="1" as="geometry" />
        </mxCell>
        <mxCell id="mhmYDJ0m5QvtUZYOxY-j-135" style="edgeStyle=orthogonalEdgeStyle;rounded=0;orthogonalLoop=1;jettySize=auto;html=1;exitX=0.5;exitY=1;exitDx=0;exitDy=0;entryX=0;entryY=0.5;entryDx=0;entryDy=0;" edge="1" parent="WIyWlLk6GJQsqaUBKTNV-1" source="mhmYDJ0m5QvtUZYOxY-j-120" target="mhmYDJ0m5QvtUZYOxY-j-127">
          <mxGeometry relative="1" as="geometry" />
        </mxCell>
        <mxCell id="mhmYDJ0m5QvtUZYOxY-j-136" style="edgeStyle=orthogonalEdgeStyle;rounded=0;orthogonalLoop=1;jettySize=auto;html=1;exitX=0.5;exitY=1;exitDx=0;exitDy=0;entryX=0;entryY=0.5;entryDx=0;entryDy=0;" edge="1" parent="WIyWlLk6GJQsqaUBKTNV-1" source="mhmYDJ0m5QvtUZYOxY-j-120" target="mhmYDJ0m5QvtUZYOxY-j-128">
          <mxGeometry relative="1" as="geometry" />
        </mxCell>
        <mxCell id="mhmYDJ0m5QvtUZYOxY-j-137" style="edgeStyle=orthogonalEdgeStyle;rounded=0;orthogonalLoop=1;jettySize=auto;html=1;exitX=0.5;exitY=1;exitDx=0;exitDy=0;entryX=0;entryY=0.5;entryDx=0;entryDy=0;" edge="1" parent="WIyWlLk6GJQsqaUBKTNV-1" source="mhmYDJ0m5QvtUZYOxY-j-120" target="mhmYDJ0m5QvtUZYOxY-j-129">
          <mxGeometry relative="1" as="geometry" />
        </mxCell>
        <mxCell id="mhmYDJ0m5QvtUZYOxY-j-120" value="Social" style="rounded=1;whiteSpace=wrap;html=1;fontSize=12;glass=0;strokeWidth=2;shadow=0;fillColor=none;strokeColor=#B98F48;perimeterSpacing=0;" vertex="1" parent="WIyWlLk6GJQsqaUBKTNV-1">
          <mxGeometry x="1087" y="340" width="65" height="30" as="geometry" />
        </mxCell>
        <mxCell id="mhmYDJ0m5QvtUZYOxY-j-122" value="Add Friend" style="rounded=1;whiteSpace=wrap;html=1;fontSize=12;glass=0;strokeWidth=2;shadow=0;fillColor=none;strokeColor=#51B94A;perimeterSpacing=0;" vertex="1" parent="WIyWlLk6GJQsqaUBKTNV-1">
          <mxGeometry x="1141" y="389" width="65" height="30" as="geometry" />
        </mxCell>
        <mxCell id="mhmYDJ0m5QvtUZYOxY-j-123" value="Chat" style="rounded=1;whiteSpace=wrap;html=1;fontSize=12;glass=0;strokeWidth=2;shadow=0;fillColor=none;strokeColor=#51B94A;perimeterSpacing=0;" vertex="1" parent="WIyWlLk6GJQsqaUBKTNV-1">
          <mxGeometry x="1142" y="430" width="65" height="30" as="geometry" />
        </mxCell>
        <mxCell id="mhmYDJ0m5QvtUZYOxY-j-124" value="Watch Game" style="rounded=1;whiteSpace=wrap;html=1;fontSize=12;glass=0;strokeWidth=2;shadow=0;fillColor=none;strokeColor=#51B94A;perimeterSpacing=0;" vertex="1" parent="WIyWlLk6GJQsqaUBKTNV-1">
          <mxGeometry x="1142" y="470" width="65" height="30" as="geometry" />
        </mxCell>
        <mxCell id="mhmYDJ0m5QvtUZYOxY-j-125" value="Block" style="rounded=1;whiteSpace=wrap;html=1;fontSize=12;glass=0;strokeWidth=2;shadow=0;fillColor=none;strokeColor=#51B94A;perimeterSpacing=0;" vertex="1" parent="WIyWlLk6GJQsqaUBKTNV-1">
          <mxGeometry x="1142" y="510" width="65" height="30" as="geometry" />
        </mxCell>
        <mxCell id="mhmYDJ0m5QvtUZYOxY-j-126" value="Remove Friend" style="rounded=1;whiteSpace=wrap;html=1;fontSize=12;glass=0;strokeWidth=2;shadow=0;fillColor=none;strokeColor=#51B94A;perimeterSpacing=0;" vertex="1" parent="WIyWlLk6GJQsqaUBKTNV-1">
          <mxGeometry x="1142" y="551" width="65" height="30" as="geometry" />
        </mxCell>
        <mxCell id="mhmYDJ0m5QvtUZYOxY-j-127" value="View Profile" style="rounded=1;whiteSpace=wrap;html=1;fontSize=12;glass=0;strokeWidth=2;shadow=0;fillColor=none;strokeColor=#51B94A;perimeterSpacing=0;" vertex="1" parent="WIyWlLk6GJQsqaUBKTNV-1">
          <mxGeometry x="1142" y="590" width="65" height="30" as="geometry" />
        </mxCell>
        <mxCell id="mhmYDJ0m5QvtUZYOxY-j-128" value="Join" style="rounded=1;whiteSpace=wrap;html=1;fontSize=12;glass=0;strokeWidth=2;shadow=0;fillColor=none;strokeColor=#51B94A;perimeterSpacing=0;" vertex="1" parent="WIyWlLk6GJQsqaUBKTNV-1">
          <mxGeometry x="1142" y="631" width="65" height="30" as="geometry" />
        </mxCell>
        <mxCell id="mhmYDJ0m5QvtUZYOxY-j-140" style="edgeStyle=orthogonalEdgeStyle;rounded=0;orthogonalLoop=1;jettySize=auto;html=1;exitX=0.5;exitY=1;exitDx=0;exitDy=0;entryX=0;entryY=0.5;entryDx=0;entryDy=0;" edge="1" parent="WIyWlLk6GJQsqaUBKTNV-1" source="mhmYDJ0m5QvtUZYOxY-j-129" target="mhmYDJ0m5QvtUZYOxY-j-138">
          <mxGeometry relative="1" as="geometry" />
        </mxCell>
        <mxCell id="mhmYDJ0m5QvtUZYOxY-j-141" style="edgeStyle=orthogonalEdgeStyle;rounded=0;orthogonalLoop=1;jettySize=auto;html=1;exitX=0.5;exitY=1;exitDx=0;exitDy=0;entryX=0;entryY=0.5;entryDx=0;entryDy=0;" edge="1" parent="WIyWlLk6GJQsqaUBKTNV-1" source="mhmYDJ0m5QvtUZYOxY-j-129" target="mhmYDJ0m5QvtUZYOxY-j-139">
          <mxGeometry relative="1" as="geometry" />
        </mxCell>
        <mxCell id="mhmYDJ0m5QvtUZYOxY-j-129" value="Friend Requests" style="rounded=1;whiteSpace=wrap;html=1;fontSize=12;glass=0;strokeWidth=2;shadow=0;fillColor=none;strokeColor=#2BE7FC;perimeterSpacing=0;" vertex="1" parent="WIyWlLk6GJQsqaUBKTNV-1">
          <mxGeometry x="1142" y="670" width="65" height="30" as="geometry" />
        </mxCell>
        <mxCell id="mhmYDJ0m5QvtUZYOxY-j-138" value="Accept" style="rounded=1;whiteSpace=wrap;html=1;fontSize=12;glass=0;strokeWidth=2;shadow=0;fillColor=none;strokeColor=#51B94A;perimeterSpacing=0;" vertex="1" parent="WIyWlLk6GJQsqaUBKTNV-1">
          <mxGeometry x="1194" y="720" width="65" height="30" as="geometry" />
        </mxCell>
        <mxCell id="mhmYDJ0m5QvtUZYOxY-j-139" value="Reject" style="rounded=1;whiteSpace=wrap;html=1;fontSize=12;glass=0;strokeWidth=2;shadow=0;fillColor=none;strokeColor=#51B94A;perimeterSpacing=0;" vertex="1" parent="WIyWlLk6GJQsqaUBKTNV-1">
          <mxGeometry x="1194" y="760" width="65" height="30" as="geometry" />
        </mxCell>
        <mxCell id="mhmYDJ0m5QvtUZYOxY-j-148" style="edgeStyle=orthogonalEdgeStyle;rounded=0;orthogonalLoop=1;jettySize=auto;html=1;exitX=0.5;exitY=1;exitDx=0;exitDy=0;entryX=0;entryY=0.5;entryDx=0;entryDy=0;" edge="1" parent="WIyWlLk6GJQsqaUBKTNV-1" source="mhmYDJ0m5QvtUZYOxY-j-142" target="mhmYDJ0m5QvtUZYOxY-j-143">
          <mxGeometry relative="1" as="geometry" />
        </mxCell>
        <mxCell id="mhmYDJ0m5QvtUZYOxY-j-149" style="edgeStyle=orthogonalEdgeStyle;rounded=0;orthogonalLoop=1;jettySize=auto;html=1;exitX=0.5;exitY=1;exitDx=0;exitDy=0;entryX=0;entryY=0.5;entryDx=0;entryDy=0;" edge="1" parent="WIyWlLk6GJQsqaUBKTNV-1" source="mhmYDJ0m5QvtUZYOxY-j-142" target="mhmYDJ0m5QvtUZYOxY-j-144">
          <mxGeometry relative="1" as="geometry" />
        </mxCell>
        <mxCell id="mhmYDJ0m5QvtUZYOxY-j-150" style="edgeStyle=orthogonalEdgeStyle;rounded=0;orthogonalLoop=1;jettySize=auto;html=1;exitX=0.5;exitY=1;exitDx=0;exitDy=0;entryX=0;entryY=0.5;entryDx=0;entryDy=0;" edge="1" parent="WIyWlLk6GJQsqaUBKTNV-1" source="mhmYDJ0m5QvtUZYOxY-j-142" target="mhmYDJ0m5QvtUZYOxY-j-145">
          <mxGeometry relative="1" as="geometry" />
        </mxCell>
        <mxCell id="mhmYDJ0m5QvtUZYOxY-j-151" style="edgeStyle=orthogonalEdgeStyle;rounded=0;orthogonalLoop=1;jettySize=auto;html=1;exitX=0.5;exitY=1;exitDx=0;exitDy=0;entryX=0;entryY=0.5;entryDx=0;entryDy=0;" edge="1" parent="WIyWlLk6GJQsqaUBKTNV-1" source="mhmYDJ0m5QvtUZYOxY-j-142" target="mhmYDJ0m5QvtUZYOxY-j-146">
          <mxGeometry relative="1" as="geometry" />
        </mxCell>
        <mxCell id="mhmYDJ0m5QvtUZYOxY-j-152" style="edgeStyle=orthogonalEdgeStyle;rounded=0;orthogonalLoop=1;jettySize=auto;html=1;exitX=0.5;exitY=1;exitDx=0;exitDy=0;entryX=0;entryY=0.5;entryDx=0;entryDy=0;" edge="1" parent="WIyWlLk6GJQsqaUBKTNV-1" source="mhmYDJ0m5QvtUZYOxY-j-142" target="mhmYDJ0m5QvtUZYOxY-j-147">
          <mxGeometry relative="1" as="geometry" />
        </mxCell>
        <mxCell id="mhmYDJ0m5QvtUZYOxY-j-154" style="edgeStyle=orthogonalEdgeStyle;rounded=0;orthogonalLoop=1;jettySize=auto;html=1;exitX=0.5;exitY=1;exitDx=0;exitDy=0;entryX=0;entryY=0.5;entryDx=0;entryDy=0;" edge="1" parent="WIyWlLk6GJQsqaUBKTNV-1" source="mhmYDJ0m5QvtUZYOxY-j-142" target="mhmYDJ0m5QvtUZYOxY-j-153">
          <mxGeometry relative="1" as="geometry" />
        </mxCell>
        <mxCell id="mhmYDJ0m5QvtUZYOxY-j-165" style="edgeStyle=orthogonalEdgeStyle;rounded=0;orthogonalLoop=1;jettySize=auto;html=1;exitX=0.5;exitY=1;exitDx=0;exitDy=0;entryX=0;entryY=0.5;entryDx=0;entryDy=0;" edge="1" parent="WIyWlLk6GJQsqaUBKTNV-1" source="mhmYDJ0m5QvtUZYOxY-j-142" target="mhmYDJ0m5QvtUZYOxY-j-162">
          <mxGeometry relative="1" as="geometry" />
        </mxCell>
        <mxCell id="mhmYDJ0m5QvtUZYOxY-j-142" value="Profile" style="rounded=1;whiteSpace=wrap;html=1;fontSize=12;glass=0;strokeWidth=2;shadow=0;fillColor=none;strokeColor=#B98F48;perimeterSpacing=0;" vertex="1" parent="WIyWlLk6GJQsqaUBKTNV-1">
          <mxGeometry x="1250" y="340" width="65" height="30" as="geometry" />
        </mxCell>
        <mxCell id="mhmYDJ0m5QvtUZYOxY-j-143" value="See Ranks" style="rounded=1;whiteSpace=wrap;html=1;fontSize=12;glass=0;strokeWidth=2;shadow=0;fillColor=none;strokeColor=#51B94A;perimeterSpacing=0;" vertex="1" parent="WIyWlLk6GJQsqaUBKTNV-1">
          <mxGeometry x="1304" y="389" width="65" height="30" as="geometry" />
        </mxCell>
        <mxCell id="mhmYDJ0m5QvtUZYOxY-j-144" value="See Masteries" style="rounded=1;whiteSpace=wrap;html=1;fontSize=12;glass=0;strokeWidth=2;shadow=0;fillColor=none;strokeColor=#51B94A;perimeterSpacing=0;" vertex="1" parent="WIyWlLk6GJQsqaUBKTNV-1">
          <mxGeometry x="1304" y="429" width="65" height="30" as="geometry" />
        </mxCell>
        <mxCell id="mhmYDJ0m5QvtUZYOxY-j-145" value="See Level" style="rounded=1;whiteSpace=wrap;html=1;fontSize=12;glass=0;strokeWidth=2;shadow=0;fillColor=none;strokeColor=#51B94A;perimeterSpacing=0;" vertex="1" parent="WIyWlLk6GJQsqaUBKTNV-1">
          <mxGeometry x="1304" y="469" width="65" height="30" as="geometry" />
        </mxCell>
        <mxCell id="mhmYDJ0m5QvtUZYOxY-j-146" value="Change Icon" style="rounded=1;whiteSpace=wrap;html=1;fontSize=12;glass=0;strokeWidth=2;shadow=0;fillColor=none;strokeColor=#51B94A;perimeterSpacing=0;" vertex="1" parent="WIyWlLk6GJQsqaUBKTNV-1">
          <mxGeometry x="1304" y="509" width="65" height="30" as="geometry" />
        </mxCell>
        <mxCell id="mhmYDJ0m5QvtUZYOxY-j-147" value="Change Background" style="rounded=1;whiteSpace=wrap;html=1;fontSize=12;glass=0;strokeWidth=2;shadow=0;fillColor=none;strokeColor=#51B94A;perimeterSpacing=0;" vertex="1" parent="WIyWlLk6GJQsqaUBKTNV-1">
          <mxGeometry x="1304" y="549" width="65" height="30" as="geometry" />
        </mxCell>
        <mxCell id="mhmYDJ0m5QvtUZYOxY-j-158" style="edgeStyle=orthogonalEdgeStyle;rounded=0;orthogonalLoop=1;jettySize=auto;html=1;exitX=0.5;exitY=1;exitDx=0;exitDy=0;entryX=0;entryY=0.5;entryDx=0;entryDy=0;" edge="1" parent="WIyWlLk6GJQsqaUBKTNV-1" source="mhmYDJ0m5QvtUZYOxY-j-153" target="mhmYDJ0m5QvtUZYOxY-j-155">
          <mxGeometry relative="1" as="geometry" />
        </mxCell>
        <mxCell id="mhmYDJ0m5QvtUZYOxY-j-159" style="edgeStyle=orthogonalEdgeStyle;rounded=0;orthogonalLoop=1;jettySize=auto;html=1;exitX=0.5;exitY=1;exitDx=0;exitDy=0;entryX=0;entryY=0.5;entryDx=0;entryDy=0;" edge="1" parent="WIyWlLk6GJQsqaUBKTNV-1" source="mhmYDJ0m5QvtUZYOxY-j-153" target="mhmYDJ0m5QvtUZYOxY-j-156">
          <mxGeometry relative="1" as="geometry" />
        </mxCell>
        <mxCell id="mhmYDJ0m5QvtUZYOxY-j-161" style="edgeStyle=orthogonalEdgeStyle;rounded=0;orthogonalLoop=1;jettySize=auto;html=1;exitX=0.5;exitY=1;exitDx=0;exitDy=0;entryX=0;entryY=0.5;entryDx=0;entryDy=0;" edge="1" parent="WIyWlLk6GJQsqaUBKTNV-1" source="mhmYDJ0m5QvtUZYOxY-j-153" target="mhmYDJ0m5QvtUZYOxY-j-157">
          <mxGeometry relative="1" as="geometry" />
        </mxCell>
        <mxCell id="mhmYDJ0m5QvtUZYOxY-j-153" value="Recent Matches" style="rounded=1;whiteSpace=wrap;html=1;fontSize=12;glass=0;strokeWidth=2;shadow=0;fillColor=none;strokeColor=#2BE7FC;perimeterSpacing=0;" vertex="1" parent="WIyWlLk6GJQsqaUBKTNV-1">
          <mxGeometry x="1304" y="591" width="65" height="30" as="geometry" />
        </mxCell>
        <mxCell id="mhmYDJ0m5QvtUZYOxY-j-155" value="Win or Lose" style="rounded=1;whiteSpace=wrap;html=1;fontSize=12;glass=0;strokeWidth=2;shadow=0;fillColor=none;strokeColor=#51B94A;perimeterSpacing=0;" vertex="1" parent="WIyWlLk6GJQsqaUBKTNV-1">
          <mxGeometry x="1361" y="638" width="65" height="30" as="geometry" />
        </mxCell>
        <mxCell id="mhmYDJ0m5QvtUZYOxY-j-156" value="Points Won" style="rounded=1;whiteSpace=wrap;html=1;fontSize=12;glass=0;strokeWidth=2;shadow=0;fillColor=none;strokeColor=#51B94A;perimeterSpacing=0;" vertex="1" parent="WIyWlLk6GJQsqaUBKTNV-1">
          <mxGeometry x="1361" y="678" width="65" height="30" as="geometry" />
        </mxCell>
        <mxCell id="mhmYDJ0m5QvtUZYOxY-j-157" value="Match Details" style="rounded=1;whiteSpace=wrap;html=1;fontSize=12;glass=0;strokeWidth=2;shadow=0;fillColor=none;strokeColor=#51B94A;perimeterSpacing=0;" vertex="1" parent="WIyWlLk6GJQsqaUBKTNV-1">
          <mxGeometry x="1361" y="719" width="65" height="30" as="geometry" />
        </mxCell>
        <mxCell id="mhmYDJ0m5QvtUZYOxY-j-164" style="edgeStyle=orthogonalEdgeStyle;rounded=0;orthogonalLoop=1;jettySize=auto;html=1;exitX=0.5;exitY=1;exitDx=0;exitDy=0;entryX=0;entryY=0.5;entryDx=0;entryDy=0;" edge="1" parent="WIyWlLk6GJQsqaUBKTNV-1" source="mhmYDJ0m5QvtUZYOxY-j-162" target="mhmYDJ0m5QvtUZYOxY-j-163">
          <mxGeometry relative="1" as="geometry" />
        </mxCell>
        <mxCell id="mhmYDJ0m5QvtUZYOxY-j-162" value="Challenges" style="rounded=1;whiteSpace=wrap;html=1;fontSize=12;glass=0;strokeWidth=2;shadow=0;fillColor=none;strokeColor=#2BE7FC;perimeterSpacing=0;" vertex="1" parent="WIyWlLk6GJQsqaUBKTNV-1">
          <mxGeometry x="1304" y="760" width="65" height="30" as="geometry" />
        </mxCell>
        <mxCell id="mhmYDJ0m5QvtUZYOxY-j-163" value="See Progress" style="rounded=1;whiteSpace=wrap;html=1;fontSize=12;glass=0;strokeWidth=2;shadow=0;fillColor=none;strokeColor=#51B94A;perimeterSpacing=0;" vertex="1" parent="WIyWlLk6GJQsqaUBKTNV-1">
          <mxGeometry x="1356" y="810" width="65" height="30" as="geometry" />
        </mxCell>
        <mxCell id="mhmYDJ0m5QvtUZYOxY-j-168" value="&lt;font style=&quot;font-size: 48px;&quot;&gt;Legends&lt;/font&gt;" style="text;strokeColor=none;fillColor=none;html=1;fontSize=24;fontStyle=1;verticalAlign=middle;align=center;" vertex="1" parent="WIyWlLk6GJQsqaUBKTNV-1">
          <mxGeometry x="1421" y="20" width="100" height="40" as="geometry" />
        </mxCell>
        <mxCell id="mhmYDJ0m5QvtUZYOxY-j-169" value="&lt;font style=&quot;font-size: 24px;&quot;&gt;Main Page&lt;/font&gt;" style="rounded=1;whiteSpace=wrap;html=1;fontSize=12;glass=0;strokeWidth=2;shadow=0;fillColor=none;strokeColor=#B98F48;perimeterSpacing=0;" vertex="1" parent="WIyWlLk6GJQsqaUBKTNV-1">
          <mxGeometry x="1400" y="78" width="150" height="52" as="geometry" />
        </mxCell>
        <mxCell id="mhmYDJ0m5QvtUZYOxY-j-171" value="&lt;font style=&quot;font-size: 24px;&quot;&gt;Sub Page&lt;/font&gt;" style="rounded=1;whiteSpace=wrap;html=1;fontSize=12;glass=0;strokeWidth=2;shadow=0;fillColor=none;strokeColor=#2BE7FC;perimeterSpacing=0;" vertex="1" parent="WIyWlLk6GJQsqaUBKTNV-1">
          <mxGeometry x="1400" y="140" width="150" height="52" as="geometry" />
        </mxCell>
        <mxCell id="mhmYDJ0m5QvtUZYOxY-j-172" value="&lt;font style=&quot;font-size: 24px;&quot;&gt;Action&lt;/font&gt;" style="rounded=1;whiteSpace=wrap;html=1;fontSize=12;glass=0;strokeWidth=2;shadow=0;fillColor=none;strokeColor=#51B94A;perimeterSpacing=0;" vertex="1" parent="WIyWlLk6GJQsqaUBKTNV-1">
          <mxGeometry x="1400" y="200" width="150" height="52" as="geometry" />
        </mxCell>
      </root>
    </mxGraphModel>
  </diagram>
</mxfile>
